<?xml version="1.0" standalone="no"?>
<svg width="420px" height="420px" version="1.1" xmlns="http://www.w3.org/2000/svg">
  <path d="M 210 10
           a 100 100 0 1 1 -100 100" 
        stroke="green"
        fill="transparent"/>
  <path d="M 210 20
           a 90 90 0 0 1 0 180" 
        stroke="blue"
        fill="transparent"/>
  <path d="M 210 30
           a 80 80 0 0 1 80 80" 
        stroke="orange"
        fill="transparent"/>
  <!--
  <path d="M80 80
           A 45 45, 0, 0, 0, 125 125
           L 125 80 Z" fill="green"/>
  <path d="M230 80
           A 45 45, 0, 1, 0, 275 125
           L 275 80 Z" fill="red"/>
  <path d="M80 230
           A 45 45, 0, 0, 1, 125 275
           L 125 230 Z" fill="purple"/>
  <path d="M230 230
           A 45 45, 0, 1, 1, 275 275
           L 275 230 Z" fill="blue"/>
  -->
</svg>
